<?xml version="1.0" encoding="UTF-8"?>
<svg fill="none" viewBox="0 0 82 89" xmlns="http://www.w3.org/2000/svg">
<g filter="url(#d)">
<path d="m41 70c12.15 0 22-9.8497 22-22s-9.8497-22-22-22-22 9.8497-22 22 9.8497 22 22 22z" clip-rule="evenodd" fill="#000" fill-opacity=".01" fill-rule="evenodd"/>
</g>
<g filter="url(#c)">
<path d="m41 70c16.568 0 30-13.432 30-30s-13.432-30-30-30-30 13.432-30 30 13.432 30 30 30z" clip-rule="evenodd" fill="#2196F3" fill-rule="evenodd"/>
<path d="m69 40c0 15.464-12.536 28-28 28s-28-12.536-28-28 12.536-28 28-28 28 12.536 28 28z" stroke="#42A5F5" stroke-width="4"/>
</g>
<mask id="b" x="11" y="10" width="60" height="60" mask-type="alpha" maskUnits="userSpaceOnUse">
<path d="m41 70c16.568 0 30-13.432 30-30s-13.432-30-30-30-30 13.432-30 30 13.432 30 30 30z" clip-rule="evenodd" fill="#fff" fill-rule="evenodd"/>
</mask>
<g mask="url(#b)" stroke="#42A5F5" stroke-width="4">
<path d="m13.714 32.875h53.822" stroke-linecap="square"/>
<path d="m13.714 48.625h53.822" stroke-linecap="square"/>
<path d="m40.25 14.5s-9.9622 11.578-9.7465 26.25c0.2156 14.672 9.7465 24.75 9.7465 24.75" stroke-linecap="round" stroke-linejoin="round"/>
<path d="m41 14.5s9.9622 11.578 9.7465 26.25c-0.2156 14.672-9.7465 24.75-9.7465 24.75" stroke-linecap="round" stroke-linejoin="round"/>
</g>
<path d="m51.195 29.028c0.2-0.1155 0.4205-0.1872 0.651-0.2017 1.0165-0.064 3.9524-0.1481 4.5891 0.9548 0.6368 1.1029-0.9049 3.6028-1.4687 4.4505-0.1277 0.1921-0.3 0.347-0.4998 0.4624l-6.0758 3.5078 0.8439 17.1c0.0118 0.2394-0.1093 0.4659-0.315 0.5891l-1.2493 0.7482c-0.1645 0.0986-0.3643 0.1193-0.5456 0.0567l-0.9468-0.327c-0.1586-0.0547-0.2899-0.1688-0.3662-0.3182l-6.458-12.632-6.3691 3.6772-0.6869 4.6714c-0.0476 0.3234-0.3281 0.561-0.6548 0.5548l-0.498-0.0094c-0.2519-0.0048-0.4783-0.1549-0.5808-0.385l-1.7897-4.016c-1.2302 0.0393-2.385-0.0816-2.6949-0.6182-0.3095-0.5361 0.1637-1.5919 0.8138-2.6329l-2.5635-3.531c-0.148-0.2038-0.1647-0.4749-0.0429-0.6954l0.2408-0.436c0.158-0.2861 0.504-0.4101 0.8078-0.2897l4.3622 1.7302 6.3805-3.6837-7.6587-11.829c-0.0912-0.1409-0.1244-0.3115-0.0925-0.4763l0.1903-0.9835c0.0364-0.1883 0.1542-0.3509 0.3219-0.4441l1.2726-0.7078c0.2095-0.1166 0.4662-0.1082 0.6676 0.0218l14.298 9.2231 6.1178-3.5321z" clip-rule="evenodd" fill="#fff" fill-rule="evenodd"/>
<mask id="a" x="16" y="13" width="50" height="51" mask-type="alpha" maskUnits="userSpaceOnUse">
<path d="m51.195 29.028c0.2-0.1155 0.4205-0.1872 0.651-0.2017 1.0165-0.064 3.9524-0.1481 4.5891 0.9548 0.6368 1.1029-0.9049 3.6028-1.4687 4.4505-0.1277 0.1921-0.3 0.347-0.4998 0.4624l-6.0758 3.5078 0.8439 17.1c0.0118 0.2394-0.1093 0.4659-0.315 0.5891l-1.2493 0.7482c-0.1645 0.0986-0.3643 0.1193-0.5456 0.0567l-0.9468-0.327c-0.1586-0.0547-0.2899-0.1688-0.3662-0.3182l-6.458-12.632-6.3691 3.6772-0.6869 4.6714c-0.0476 0.3234-0.3281 0.561-0.6548 0.5548l-0.498-0.0094c-0.2519-0.0048-0.4783-0.1549-0.5808-0.385l-1.7897-4.016c-1.2302 0.0393-2.385-0.0816-2.6949-0.6182-0.3095-0.5361 0.1637-1.5919 0.8138-2.6329l-2.5635-3.531c-0.148-0.2038-0.1647-0.4749-0.0429-0.6954l0.2408-0.436c0.158-0.2861 0.504-0.4101 0.8078-0.2897l4.3622 1.7302 6.3805-3.6837-7.6587-11.829c-0.0912-0.1409-0.1244-0.3115-0.0925-0.4763l0.1903-0.9835c0.0364-0.1883 0.1542-0.3509 0.3219-0.4441l1.2726-0.7078c0.2095-0.1166 0.4662-0.1082 0.6676 0.0218l14.298 9.2231 6.1178-3.5321z" clip-rule="evenodd" fill="#fff" fill-rule="evenodd"/>
</mask>
<g mask="url(#a)">
<rect transform="rotate(60 45.536 30.784)" x="45.536" y="30.784" width="1.3085" height="12.408" fill="#EBECF2"/>
<path d="m48.919 55.891c0.2057-0.1232 0.3268-0.3496 0.315-0.5891l-0.8715-17.659-9.2364 5.3326 6.685 13.076c0.0763 0.1494 0.2076 0.2635 0.3662 0.3182l0.9468 0.327c0.1813 0.0627 0.3811 0.0419 0.5456-0.0567l1.2493-0.7482z" clip-rule="evenodd" fill="#DEE1E3" fill-rule="evenodd"/>
<path d="m28.837 47.801-0.089 0.0514 1.8162 4.0755c0.1026 0.2302 0.3289 0.3802 0.5808 0.385l0.498 0.0094c0.3267 0.0062 0.6072-0.2314 0.6548-0.5548l0.7256-4.9344-0.463 0.2673c-0.1433 0.0827-0.2974 0.1445-0.4589 0.1806-0.5502 0.1228-1.9464 0.4138-3.2645 0.52z" clip-rule="evenodd" fill="#DEE1E3" fill-rule="evenodd" opacity=".4"/>
<path d="m39.248 43.213 9.1294-5.2708 0.0993 2.0113-7.5209 6.5999-1.7078-3.3404z" clip-rule="evenodd" fill="#C5C6CC" fill-rule="evenodd"/>
<path d="m57.482 32.952-29.791 17.2s-0.8791-1.5887-1.6121-2.8584c-0.0089-0.0153-0.0172-0.0309-0.0251-0.0466 1.3515 0.0977 4.0727-0.0122 6.7119-1.5359l20.625-11.908c2.2916-1.3231 2.8529-3.0364 3.162-3.7729 0.4785 1.2851 0.9296 2.9215 0.9296 2.9215z" clip-rule="evenodd" fill="#DEE1E3" fill-rule="evenodd"/>
</g>
<defs>
<filter id="d" x="8" y="23" width="66" height="66" color-interpolation-filters="sRGB" filterUnits="userSpaceOnUse">
<feFlood flood-opacity="0" result="BackgroundImageFix"/>
<feColorMatrix in="SourceAlpha" values="0 0 0 0 0 0 0 0 0 0 0 0 0 0 0 0 0 0 127 0"/>
<feOffset dy="8"/>
<feGaussianBlur stdDeviation="5.5"/>
<feColorMatrix values="0 0 0 0 0.215686 0 0 0 0 0.407843 0 0 0 0 0.556863 0 0 0 0.25 0"/>
<feBlend in2="BackgroundImageFix" result="effect1_dropShadow"/>
<feBlend in="SourceGraphic" in2="effect1_dropShadow" result="shape"/>
</filter>
<filter id="c" x="0" y="0" width="82" height="82" color-interpolation-filters="sRGB" filterUnits="userSpaceOnUse">
<feFlood flood-opacity="0" result="BackgroundImageFix"/>
<feColorMatrix in="SourceAlpha" values="0 0 0 0 0 0 0 0 0 0 0 0 0 0 0 0 0 0 127 0"/>
<feOffset dy="1"/>
<feGaussianBlur stdDeviation="5.5"/>
<feColorMatrix values="0 0 0 0 0.215686 0 0 0 0 0.407843 0 0 0 0 0.556863 0 0 0 0.3 0"/>
<feBlend in2="BackgroundImageFix" result="effect1_dropShadow"/>
<feBlend in="SourceGraphic" in2="effect1_dropShadow" result="shape"/>
</filter>
</defs>
</svg>
